<?xml version="1.0" standalone="no"?>
<!DOCTYPE svg PUBLIC "-//W3C//DTD SVG 20010904//EN"
 "http://www.w3.org/TR/2001/REC-SVG-20010904/DTD/svg10.dtd">
<svg version="1.0" xmlns="http://www.w3.org/2000/svg"
 width="576.000000pt" height="576.000000pt" viewBox="0 0 576.000000 576.000000"
 preserveAspectRatio="xMidYMid meet">
<metadata>
Created by potrace 1.11, written by Peter Selinger 2001-2013
</metadata>
<g transform="translate(0.000000,576.000000) scale(0.100000,-0.100000)"
fill="#000000" stroke="none">
<path d="M2858 5014 c-9 -9 -44 -14 -118 -15 -58 0 -109 -4 -115 -9 -5 -4 -32
-10 -60 -13 -145 -16 -347 -73 -520 -146 -104 -44 -312 -160 -388 -215 -46
-34 -220 -178 -245 -203 -13 -13 -28 -23 -34 -23 -6 0 -9 -3 -6 -6 3 -3 -19
-31 -49 -62 -69 -73 -207 -255 -265 -352 -133 -221 -222 -457 -268 -714 -23
-124 -31 -145 -25 -62 2 31 0 56 -4 56 -6 0 -8 -133 -2 -155 2 -5 2 -12 1 -15
-1 -3 -3 -43 -5 -89 -2 -46 -7 -87 -12 -90 -11 -8 -11 -44 1 -52 5 -4 9 -47
10 -97 0 -50 4 -88 8 -86 5 4 4 -21 -3 -36 -6 -14 -3 -87 4 -83 4 2 5 15 3 29
-3 13 -1 22 3 19 5 -2 12 -31 16 -62 8 -68 50 -250 73 -313 3 -8 6 -19 7 -25
13 -51 138 -324 179 -390 197 -313 422 -547 689 -714 37 -24 67 -47 67 -52 0
-6 4 -8 9 -5 5 3 24 -4 42 -17 46 -30 234 -114 337 -149 136 -46 232 -69 365
-89 57 -8 82 -16 70 -20 -10 -4 36 -7 102 -8 73 0 121 -4 123 -11 5 -13 45
-13 58 0 7 7 69 11 150 12 89 1 123 4 94 8 l-45 7 43 3 c23 1 45 3 50 4 36 9
74 16 110 21 23 3 60 12 82 20 22 8 40 12 40 10 0 -9 269 89 344 125 187 91
295 159 441 276 92 74 239 220 310 309 22 28 43 52 46 55 3 3 21 28 39 55 19
28 37 52 42 53 4 2 8 8 8 13 0 5 15 32 34 61 89 141 203 407 242 567 2 9 8 36
15 61 6 25 12 54 14 65 24 141 29 164 39 158 6 -4 6 0 -1 8 -10 12 -10 18 0
29 10 10 9 11 -3 5 -13 -8 -13 -6 -2 7 9 11 10 18 2 23 -6 3 -7 12 -3 18 4 7
8 38 9 71 1 32 6 61 12 65 12 8 12 44 -1 52 -5 4 -10 38 -11 77 -1 39 -5 74
-9 78 -4 4 -2 13 4 21 9 10 8 13 -2 13 -9 0 -10 3 -3 8 12 7 14 103 2 96 -3
-2 -5 -15 -4 -29 2 -13 0 -22 -4 -20 -4 2 -10 30 -14 62 -7 63 -30 170 -52
248 -9 28 -16 57 -18 65 -2 8 -8 26 -13 40 -6 14 -18 46 -26 71 -26 76 -113
253 -171 347 -180 290 -416 529 -694 702 -125 77 -305 163 -438 208 -116 40
-342 92 -400 92 -21 0 -25 3 -15 9 8 5 21 7 30 4 13 -4 13 -3 -1 6 -11 7 -25
8 -41 2 -17 -7 -28 -6 -37 2 -10 9 -11 9 -5 -2 6 -10 4 -12 -5 -6 -7 4 -51 8
-97 8 -45 0 -83 3 -83 7 0 15 -38 17 -52 4z m1 -446 c16 -10 24 -10 43 1 28
14 129 9 283 -14 100 -16 341 -91 373 -117 6 -6 12 -8 12 -5 0 10 189 -92 255
-136 80 -54 177 -133 245 -199 84 -81 162 -176 155 -188 -4 -6 -1 -9 6 -8 15
4 106 -131 163 -242 63 -122 121 -278 142 -380 3 -14 12 -56 20 -95 18 -85 31
-285 18 -285 -5 0 -10 -11 -10 -25 -1 -14 2 -25 7 -25 12 0 11 -101 -1 -197
-31 -229 -107 -451 -222 -642 -176 -294 -416 -516 -721 -665 -123 -60 -182
-82 -332 -122 -143 -39 -370 -61 -392 -39 -13 13 -53 9 -53 -5 0 -13 -195 3
-314 26 -59 11 -190 49 -246 71 -339 132 -592 325 -799 610 -64 89 -83 121
-132 223 -22 47 -45 93 -50 102 -16 32 -70 193 -85 258 -21 87 -22 91 -29 147
-4 26 -8 58 -10 70 -11 69 -8 155 6 164 8 5 10 9 4 9 -5 0 -4 5 3 12 9 9 7 14
-5 23 -13 9 -16 27 -14 76 3 94 12 153 25 161 8 6 8 8 0 8 -14 0 -11 25 15
125 54 209 114 355 208 503 18 29 33 55 33 57 0 5 86 118 125 163 51 60 187
190 241 232 51 38 114 81 114 76 0 -3 11 5 25 18 20 18 224 125 300 156 30 13
215 67 250 74 77 14 94 17 150 22 33 4 61 7 62 8 10 9 116 4 132 -6z"/>
<path d="M2215 4030 c-9 -15 3 -30 19 -24 8 3 17 1 21 -5 3 -6 11 -11 17 -11
11 0 -32 50 -44 50 -4 0 -10 -4 -13 -10z"/>
<path d="M2290 3979 c0 -6 -6 -9 -13 -6 -8 3 -34 1 -59 -4 -60 -13 -120 -66
-149 -129 -12 -28 -25 -50 -29 -50 -11 0 -9 -41 3 -46 17 -6 17 -1722 0 -1732
-14 -9 -12 -34 3 -53 6 -8 10 -31 9 -52 -1 -21 2 -40 6 -43 4 -2 6 8 4 23 l-5
28 18 -25 c52 -76 109 -110 184 -110 l43 -1 -30 -16 c-16 -10 -36 -17 -44 -18
-16 0 -28 -25 -12 -25 5 0 31 14 57 32 34 22 57 31 81 30 27 -2 33 1 33 17 0
15 42 44 176 120 97 56 181 98 187 94 6 -3 7 -1 3 5 -4 7 2 16 16 21 13 5 65
34 116 65 51 31 94 56 97 56 3 0 15 6 28 14 12 7 94 55 182 105 88 50 167 95
175 101 57 35 174 100 181 100 5 0 9 5 9 10 0 6 4 10 10 10 8 0 122 63 180
100 32 20 98 51 106 49 21 -4 45 2 40 9 -2 4 -2 12 2 18 12 17 96 61 109 57
15 -5 24 10 14 26 -7 10 -11 10 -22 -1 -21 -21 -62 -48 -72 -48 -5 0 3 14 17
30 43 52 46 144 6 216 -10 18 -16 35 -12 38 3 4 -4 9 -16 13 -12 3 -25 16 -28
29 -4 17 -13 22 -33 22 -15 -1 -47 11 -72 26 -49 30 -58 35 -138 86 -90 56
-115 70 -133 76 -10 4 -18 10 -18 15 0 5 -5 9 -10 9 -6 0 -29 12 -53 27 -45
29 -233 144 -282 173 -16 9 -165 99 -330 200 -165 101 -330 201 -367 224 -43
25 -68 48 -68 58 0 14 -8 18 -34 18 -19 0 -38 5 -41 10 -8 13 -25 13 -25 -1z"/>
<path d="M2040 3925 c0 -8 5 -15 10 -15 6 0 8 -12 5 -27 -4 -23 -4 -25 4 -8
15 31 13 65 -4 65 -8 0 -15 -7 -15 -15z"/>
<path d="M3979 2961 c25 -22 37 -28 42 -19 9 15 1 29 -14 26 -7 -1 -23 4 -37
11 -19 10 -17 6 9 -18z"/>
<path d="M2047 1835 c-8 -19 13 -31 23 -14 9 14 4 29 -10 29 -4 0 -10 -7 -13
-15z"/>
<path d="M1690 5001 c0 -6 4 -12 9 -15 13 -8 42 4 35 15 -7 12 -44 12 -44 0z"/>
<path d="M1787 4998 c-7 -4 7 -8 31 -8 23 0 42 3 42 8 0 9 -58 9 -73 0z"/>
<path d="M1874 4999 c-3 -5 6 -9 20 -9 31 0 34 6 6 13 -11 3 -23 1 -26 -4z"/>
<path d="M1930 4998 c0 -5 30 -8 67 -8 36 0 64 2 62 5 -9 8 -129 10 -129 3z"/>
<path d="M2115 5000 c-3 -5 1 -10 10 -10 9 0 13 5 10 10 -3 6 -8 10 -10 10 -2
0 -7 -4 -10 -10z"/>
<path d="M2275 5000 c-3 -5 1 -10 10 -10 9 0 13 5 10 10 -3 6 -8 10 -10 10 -2
0 -7 -4 -10 -10z"/>
<path d="M2334 4999 c-16 -3 16 -6 70 -7 55 -1 97 1 93 4 -8 8 -126 11 -163 3z"/>
<path d="M2534 4998 c-3 -4 12 -8 32 -8 21 0 34 3 31 7 -10 9 -58 10 -63 1z"/>
<path d="M3220 4999 c-21 -6 -19 -7 13 -6 20 0 37 1 37 3 0 7 -29 10 -50 3z"/>
<path d="M3300 4999 c-21 -6 -19 -7 13 -6 20 0 37 1 37 3 0 7 -29 10 -50 3z"/>
<path d="M3427 4998 c-7 -4 8 -8 32 -8 24 0 41 3 38 7 -10 9 -56 10 -70 1z"/>
<path d="M3550 4999 l-45 -6 58 -1 c31 -1 57 2 57 6 0 10 -7 10 -70 1z"/>
<path d="M3634 4998 c-3 -4 14 -8 37 -8 23 0 40 3 36 6 -9 9 -68 11 -73 2z"/>
<path d="M3720 5000 c0 -6 7 -10 15 -10 8 0 15 2 15 4 0 2 -7 6 -15 10 -8 3
-15 1 -15 -4z"/>
<path d="M3800 5000 c0 -6 7 -10 15 -10 8 0 15 2 15 4 0 2 -7 6 -15 10 -8 3
-15 1 -15 -4z"/>
<path d="M3875 5000 c-3 -5 1 -10 10 -10 9 0 13 5 10 10 -3 6 -8 10 -10 10 -2
0 -7 -4 -10 -10z"/>
<path d="M3977 4998 c-7 -4 5 -8 26 -9 20 -1 42 -2 49 -3 6 -1 13 5 15 11 5
14 -69 14 -90 1z"/>
<path d="M2078 4993 c7 -3 16 -2 19 1 4 3 -2 6 -13 5 -11 0 -14 -3 -6 -6z"/>
<path d="M2188 4993 c6 -2 18 -2 25 0 6 3 1 5 -13 5 -14 0 -19 -2 -12 -5z"/>
<path d="M2238 4993 c7 -3 16 -2 19 1 4 3 -2 6 -13 5 -11 0 -14 -3 -6 -6z"/>
<path d="M3373 4993 c9 -2 23 -2 30 0 6 3 -1 5 -18 5 -16 0 -22 -2 -12 -5z"/>
<path d="M3768 4993 c7 -3 16 -2 19 1 4 3 -2 6 -13 5 -11 0 -14 -3 -6 -6z"/>
<path d="M3918 4993 c7 -3 16 -2 19 1 4 3 -2 6 -13 5 -11 0 -14 -3 -6 -6z"/>
<path d="M747 4055 c-6 -13 1 -25 14 -25 14 0 18 28 4 34 -7 2 -16 -1 -18 -9z"/>
<path d="M4990 4045 c0 -14 4 -25 9 -25 12 0 23 29 15 41 -10 18 -24 9 -24
-16z"/>
<path d="M4990 4001 c0 -6 4 -12 8 -15 5 -3 9 1 9 9 0 8 -4 15 -9 15 -4 0 -8
-4 -8 -9z"/>
<path d="M754 3975 c0 -13 3 -22 7 -19 8 4 6 30 -2 38 -3 3 -5 -5 -5 -19z"/>
<path d="M4995 3960 c3 -5 8 -10 11 -10 2 0 4 5 4 10 0 6 -5 10 -11 10 -5 0
-7 -4 -4 -10z"/>
<path d="M754 3875 c0 -36 2 -65 6 -65 3 0 5 29 5 65 0 36 -2 65 -5 65 -4 0
-6 -29 -6 -65z"/>
<path d="M4994 3825 c2 -35 11 -39 12 -4 1 16 -2 29 -6 29 -4 0 -6 -11 -6 -25z"/>
<path d="M752 3769 c0 -17 2 -28 6 -25 9 9 11 56 2 56 -4 0 -7 -14 -8 -31z"/>
<path d="M750 3721 c0 -6 4 -12 8 -15 5 -3 9 1 9 9 0 8 -4 15 -9 15 -4 0 -8
-4 -8 -9z"/>
<path d="M4999 3723 c0 -5 -2 -18 -5 -30 -2 -13 0 -23 5 -23 15 0 23 18 12 25
-6 3 -8 12 -4 20 3 8 2 15 -1 15 -3 0 -6 -3 -7 -7z"/>
<path d="M4999 3658 c-5 -10 -4 -148 1 -148 3 0 6 34 6 75 1 64 -1 84 -7 73z"/>
<path d="M754 3619 c-2 -33 4 -33 11 -1 2 12 1 24 -3 26 -4 2 -8 -9 -8 -25z"/>
<path d="M4996 3463 c-4 -9 -3 -20 1 -24 4 -4 9 3 9 17 2 28 -1 31 -10 7z"/>
<path d="M759 3468 c-4 -13 -4 -66 0 -62 6 6 10 64 5 64 -2 0 -4 -1 -5 -2z"/>
<path d="M4993 3405 c0 -8 4 -15 9 -15 4 0 8 4 8 9 0 6 -4 12 -8 15 -5 3 -9
-1 -9 -9z"/>
<path d="M754 3360 c-1 -16 1 -30 5 -30 3 0 7 14 7 30 1 17 -1 30 -5 30 -3 0
-7 -13 -7 -30z"/>
<path d="M4999 3378 c-5 -13 -5 -60 0 -63 4 -2 7 12 7 31 0 29 -3 42 -7 32z"/>
<path d="M752 3290 c0 -16 2 -30 6 -30 4 0 7 14 7 30 1 17 -2 30 -6 30 -3 0
-6 -13 -7 -30z"/>
<path d="M4995 3240 c-3 -5 -1 -10 4 -10 6 0 11 5 11 10 0 6 -2 10 -4 10 -3 0
-8 -4 -11 -10z"/>
<path d="M4995 2570 c-3 -5 -1 -10 4 -10 6 0 11 5 11 10 0 6 -2 10 -4 10 -3 0
-8 -4 -11 -10z"/>
<path d="M750 2519 c0 -5 5 -7 10 -4 6 3 10 8 10 11 0 2 -4 4 -10 4 -5 0 -10
-5 -10 -11z"/>
<path d="M4994 2480 c0 -27 3 -50 6 -50 3 0 6 23 6 50 0 28 -3 50 -6 50 -3 0
-6 -22 -6 -50z"/>
<path d="M754 2399 c0 -27 2 -47 4 -44 8 7 10 85 3 89 -3 2 -6 -18 -7 -45z"/>
<path d="M4996 2411 c-4 -7 -5 -15 -2 -18 9 -9 19 4 14 18 -4 11 -6 11 -12 0z"/>
<path d="M4993 2365 c0 -8 4 -15 9 -15 4 0 8 7 8 15 0 8 -4 15 -8 15 -5 0 -9
-7 -9 -15z"/>
<path d="M754 2238 c2 -29 -2 -59 -8 -67 -8 -11 -8 -13 2 -7 9 5 11 -2 6 -31
-3 -21 -2 -34 2 -30 11 11 13 187 3 187 -4 0 -6 -24 -5 -52z"/>
<path d="M4999 2283 c-5 -32 -4 -85 0 -88 3 -2 6 19 7 46 0 27 -1 49 -3 49 -2
0 -3 -3 -4 -7z"/>
<path d="M4999 2123 c-6 -44 -5 -93 1 -93 4 0 7 23 6 50 0 43 -4 65 -7 43z"/>
<path d="M752 2060 c1 -35 7 -34 14 4 2 14 0 26 -5 26 -5 0 -9 -14 -9 -30z"/>
<path d="M4999 2018 c-5 -9 -4 -108 1 -108 4 0 6 25 6 55 0 48 -2 62 -7 53z"/>
<path d="M754 1939 c-2 -33 4 -33 11 -1 2 12 1 24 -3 26 -4 2 -8 -9 -8 -25z"/>
<path d="M4999 1898 c-5 -12 -4 -78 1 -78 3 0 6 18 7 40 1 33 -3 50 -8 38z"/>
<path d="M759 1868 c-6 -20 -6 -39 0 -42 4 -3 7 6 7 20 0 20 -4 32 -7 22z"/>
<path d="M4997 1803 c-10 -9 -9 -23 1 -23 5 0 9 7 9 15 0 17 -1 18 -10 8z"/>
<path d="M755 1762 c1 -15 -3 -33 -8 -40 -15 -19 6 -37 28 -25 15 9 15 11 2
16 -9 3 -14 16 -12 36 1 17 -1 33 -5 36 -4 2 -6 -8 -5 -23z"/>
<path d="M4993 1755 c0 -8 4 -12 9 -9 4 3 8 9 8 15 0 5 -4 9 -8 9 -5 0 -9 -7
-9 -15z"/>
<path d="M4987 1715 c-7 -16 8 -29 23 -20 10 6 2 35 -10 35 -4 0 -10 -7 -13
-15z"/>
<path d="M1693 757 c2 -7 13 -11 23 -9 10 1 53 2 94 2 101 -1 86 6 -28 13 -69
4 -92 2 -89 -6z"/>
<path d="M2075 759 c-68 -4 -44 -6 99 -7 104 -1 187 1 183 4 -8 8 -171 10
-282 3z"/>
<path d="M3235 759 c-22 -3 23 -6 100 -6 139 0 143 4 10 9 -38 2 -88 0 -110
-3z"/>
<path d="M3713 758 c-2 -5 70 -9 161 -9 91 -1 171 -2 178 -3 6 -1 13 4 15 9 4
12 -346 14 -354 3z"/>
<path d="M1903 753 c9 -2 25 -2 35 0 9 3 1 5 -18 5 -19 0 -27 -2 -17 -5z"/>
<path d="M2393 753 c15 -2 37 -2 50 0 12 2 0 4 -28 4 -27 0 -38 -2 -22 -4z"/>
<path d="M2488 753 c12 -2 30 -2 40 0 9 3 -1 5 -23 4 -22 0 -30 -2 -17 -4z"/>
<path d="M2563 753 c9 -2 23 -2 30 0 6 3 -1 5 -18 5 -16 0 -22 -2 -12 -5z"/>
<path d="M3523 753 c9 -2 23 -2 30 0 6 3 -1 5 -18 5 -16 0 -22 -2 -12 -5z"/>
<path d="M3593 753 c15 -2 39 -2 55 0 15 2 2 4 -28 4 -30 0 -43 -2 -27 -4z"/>
</g>
</svg>
